<svg id="visual" viewBox="0 0 960 540" width="960" height="540" xmlns="http://www.w3.org/2000/svg" xmlns:xlink="http://www.w3.org/1999/xlink" version="1.1"><rect x="0" y="0" width="960" height="540" fill="#4ca3e2"></rect><path d="M0 328L13.3 328.7C26.7 329.3 53.3 330.7 80 326.3C106.7 322 133.3 312 160 310.5C186.7 309 213.3 316 240 312.7C266.7 309.3 293.3 295.7 320 292.3C346.7 289 373.3 296 400 293.8C426.7 291.7 453.3 280.3 480 274.5C506.7 268.7 533.3 268.3 560 271.8C586.7 275.3 613.3 282.7 640 282.3C666.7 282 693.3 274 720 270.2C746.7 266.3 773.3 266.7 800 281.3C826.7 296 853.3 325 880 327C906.7 329 933.3 304 946.7 291.5L960 279L960 541L946.7 541C933.3 541 906.7 541 880 541C853.3 541 826.7 541 800 541C773.3 541 746.7 541 720 541C693.3 541 666.7 541 640 541C613.3 541 586.7 541 560 541C533.3 541 506.7 541 480 541C453.3 541 426.7 541 400 541C373.3 541 346.7 541 320 541C293.3 541 266.7 541 240 541C213.3 541 186.7 541 160 541C133.3 541 106.7 541 80 541C53.3 541 26.7 541 13.3 541L0 541Z" fill="#4ca3e2"></path><path d="M0 344L13.3 340.8C26.7 337.7 53.3 331.3 80 333.8C106.7 336.3 133.3 347.7 160 353.5C186.7 359.3 213.3 359.7 240 356.3C266.7 353 293.3 346 320 342.3C346.7 338.7 373.3 338.3 400 335.2C426.7 332 453.3 326 480 333C506.7 340 533.3 360 560 357.7C586.7 355.3 613.3 330.7 640 325.3C666.7 320 693.3 334 720 343.3C746.7 352.7 773.3 357.3 800 352.3C826.7 347.3 853.3 332.7 880 328.2C906.7 323.7 933.3 329.3 946.7 332.2L960 335L960 541L946.7 541C933.3 541 906.7 541 880 541C853.3 541 826.7 541 800 541C773.3 541 746.7 541 720 541C693.3 541 666.7 541 640 541C613.3 541 586.7 541 560 541C533.3 541 506.7 541 480 541C453.3 541 426.7 541 400 541C373.3 541 346.7 541 320 541C293.3 541 266.7 541 240 541C213.3 541 186.7 541 160 541C133.3 541 106.7 541 80 541C53.3 541 26.7 541 13.3 541L0 541Z" fill="#7ab5e8"></path><path d="M0 395L13.3 390.3C26.7 385.7 53.3 376.3 80 375.3C106.7 374.3 133.3 381.7 160 386C186.7 390.3 213.3 391.7 240 384.8C266.7 378 293.3 363 320 365.8C346.7 368.7 373.3 389.3 400 398.8C426.7 408.3 453.3 406.7 480 407.8C506.7 409 533.3 413 560 414.8C586.7 416.7 613.3 416.3 640 408.7C666.7 401 693.3 386 720 380.8C746.7 375.7 773.3 380.3 800 379.3C826.7 378.3 853.3 371.7 880 374.2C906.7 376.7 933.3 388.3 946.7 394.2L960 400L960 541L946.7 541C933.3 541 906.7 541 880 541C853.3 541 826.7 541 800 541C773.3 541 746.7 541 720 541C693.3 541 666.7 541 640 541C613.3 541 586.7 541 560 541C533.3 541 506.7 541 480 541C453.3 541 426.7 541 400 541C373.3 541 346.7 541 320 541C293.3 541 266.7 541 240 541C213.3 541 186.7 541 160 541C133.3 541 106.7 541 80 541C53.3 541 26.7 541 13.3 541L0 541Z" fill="#9fc7ee"></path><path d="M0 433L13.3 426.2C26.7 419.3 53.3 405.7 80 405.8C106.7 406 133.3 420 160 423.7C186.7 427.3 213.3 420.7 240 420.3C266.7 420 293.3 426 320 424.3C346.7 422.7 373.3 413.3 400 409.7C426.7 406 453.3 408 480 405.7C506.7 403.3 533.3 396.7 560 395C586.7 393.3 613.3 396.7 640 403.3C666.7 410 693.3 420 720 428.3C746.7 436.7 773.3 443.3 800 444.5C826.7 445.7 853.3 441.3 880 439.5C906.7 437.7 933.3 438.3 946.7 438.7L960 439L960 541L946.7 541C933.3 541 906.7 541 880 541C853.3 541 826.7 541 800 541C773.3 541 746.7 541 720 541C693.3 541 666.7 541 640 541C613.3 541 586.7 541 560 541C533.3 541 506.7 541 480 541C453.3 541 426.7 541 400 541C373.3 541 346.7 541 320 541C293.3 541 266.7 541 240 541C213.3 541 186.7 541 160 541C133.3 541 106.7 541 80 541C53.3 541 26.7 541 13.3 541L0 541Z" fill="#c0d9f4"></path><path d="M0 461L13.3 461C26.7 461 53.3 461 80 464.2C106.7 467.3 133.3 473.7 160 472.3C186.7 471 213.3 462 240 459.2C266.7 456.3 293.3 459.7 320 457.3C346.7 455 373.3 447 400 443.3C426.7 439.7 453.3 440.3 480 444.8C506.7 449.3 533.3 457.7 560 456.3C586.7 455 613.3 444 640 442.7C666.7 441.3 693.3 449.7 720 457.5C746.7 465.3 773.3 472.7 800 468.8C826.7 465 853.3 450 880 448.2C906.7 446.3 933.3 457.7 946.7 463.3L960 469L960 541L946.7 541C933.3 541 906.7 541 880 541C853.3 541 826.7 541 800 541C773.3 541 746.7 541 720 541C693.3 541 666.7 541 640 541C613.3 541 586.7 541 560 541C533.3 541 506.7 541 480 541C453.3 541 426.7 541 400 541C373.3 541 346.7 541 320 541C293.3 541 266.7 541 240 541C213.3 541 186.7 541 160 541C133.3 541 106.7 541 80 541C53.3 541 26.7 541 13.3 541L0 541Z" fill="#e0ecfa"></path><path d="M0 509L13.3 506.5C26.7 504 53.3 499 80 496.2C106.7 493.3 133.3 492.7 160 493.5C186.7 494.3 213.3 496.7 240 498C266.7 499.3 293.3 499.7 320 498.2C346.7 496.7 373.3 493.3 400 489.5C426.7 485.7 453.3 481.3 480 483C506.7 484.7 533.3 492.3 560 497C586.7 501.7 613.3 503.3 640 503.3C666.7 503.3 693.3 501.7 720 497.2C746.7 492.7 773.3 485.3 800 483.2C826.7 481 853.3 484 880 485C906.7 486 933.3 485 946.7 484.5L960 484L960 541L946.7 541C933.3 541 906.7 541 880 541C853.3 541 826.7 541 800 541C773.3 541 746.7 541 720 541C693.3 541 666.7 541 640 541C613.3 541 586.7 541 560 541C533.3 541 506.7 541 480 541C453.3 541 426.7 541 400 541C373.3 541 346.7 541 320 541C293.3 541 266.7 541 240 541C213.3 541 186.7 541 160 541C133.3 541 106.7 541 80 541C53.3 541 26.7 541 13.3 541L0 541Z" fill="#ffffff"></path></svg>