<svg id="visual" viewBox="0 0 1080 1920" width="1080" height="1920" xmlns="http://www.w3.org/2000/svg" xmlns:xlink="http://www.w3.org/1999/xlink" version="1.1"><rect x="0" y="0" width="1080" height="1920" fill="#4ca3e2"></rect><path d="M0 1380L45 1353.7C90 1327.3 180 1274.7 270 1242.5C360 1210.3 450 1198.7 540 1229.3C630 1260 720 1333 810 1354.3C900 1375.7 990 1345.3 1035 1330.2L1080 1315L1080 1921L1035 1921C990 1921 900 1921 810 1921C720 1921 630 1921 540 1921C450 1921 360 1921 270 1921C180 1921 90 1921 45 1921L0 1921Z" fill="#4ca3e2"></path><path d="M0 1484L45 1461.5C90 1439 180 1394 270 1386.8C360 1379.7 450 1410.3 540 1402.2C630 1394 720 1347 810 1321.8C900 1296.7 990 1293.3 1035 1291.7L1080 1290L1080 1921L1035 1921C990 1921 900 1921 810 1921C720 1921 630 1921 540 1921C450 1921 360 1921 270 1921C180 1921 90 1921 45 1921L0 1921Z" fill="#84b9ea"></path><path d="M0 1527L45 1520.3C90 1513.7 180 1500.3 270 1514.5C360 1528.7 450 1570.3 540 1583.3C630 1596.3 720 1580.7 810 1579.8C900 1579 990 1593 1035 1600L1080 1607L1080 1921L1035 1921C990 1921 900 1921 810 1921C720 1921 630 1921 540 1921C450 1921 360 1921 270 1921C180 1921 90 1921 45 1921L0 1921Z" fill="#b0d0f1"></path><path d="M0 1632L45 1654.5C90 1677 180 1722 270 1736.8C360 1751.7 450 1736.3 540 1708C630 1679.7 720 1638.3 810 1644.8C900 1651.3 990 1705.7 1035 1732.8L1080 1760L1080 1921L1035 1921C990 1921 900 1921 810 1921C720 1921 630 1921 540 1921C450 1921 360 1921 270 1921C180 1921 90 1921 45 1921L0 1921Z" fill="#d8e7f8"></path><path d="M0 1871L45 1873.7C90 1876.3 180 1881.7 270 1858.8C360 1836 450 1785 540 1781.8C630 1778.7 720 1823.3 810 1819.5C900 1815.7 990 1763.3 1035 1737.2L1080 1711L1080 1921L1035 1921C990 1921 900 1921 810 1921C720 1921 630 1921 540 1921C450 1921 360 1921 270 1921C180 1921 90 1921 45 1921L0 1921Z" fill="#ffffff"></path></svg>