<svg width="418" height="237" fill="#0000009f" xmlns="http://www.w3.org/2000/svg"><path d="M292.151 92.758a5.486 5.486 0 01-1.718 3.965 5.998 5.998 0 01-4.145 1.643 6.002 6.002 0 01-4.146-1.643 5.489 5.489 0 01-1.717-3.965c0-1.487.618-2.914 1.717-3.965a6.003 6.003 0 014.146-1.643c1.555 0 3.046.591 4.145 1.643a5.486 5.486 0 011.718 3.965zM12.286 137.583h74c17.022.055 17.522 32.044 0 32h-74c-16.067-.556-16.693-31.731 0-32zm44-37c-18.753-.155-20.002-31.672 0-32h30c18.521-.12 19.229 32 0 32h-30zm144.325 83.978c-11.792-15.495-14.134-14.978-32.325-14.978h-47c-18.259-.736-17.469-32.327 0-32h29c21.429 0 21.241-37 0-37h-29c-15.648-.66-15.507-31.625 0-32h59c20.301-.436 20.529-36.056 0-36h-114c-17.766-.274-17.83-32.887 0-32.58l125.887.104L299.998.02c80.146-.954 116.938 64.6 117.872 112.493-.503 89.177-74.867 123.945-117.872 123.507-47.887-.936-77.78-23.178-99.387-51.46zm165.679-30.84c-7.063-20.56-26.502-37.039-42.458-46.206-5.071-2.868-5.808-4.088-4.255-7.042 4.998-9.505 15.612-18.95 45.819-28.845 15.695-5.141 33.442-.794 32.411-1.825-1.474-1.473-15.275-7.436-23.711-7.466-23.977-1.777-41.374 11.725-60.063 13.418-13.506.099-22.366-12.646-36.97-11.208-23.912.81-44.618 22.36-45.54 42.634.54 16.547 4.415 22.572 10.805 36.751-1.613 4.96-3.736 9.935-4.402 15.116-.424 3.581-.286 3.915 3.496 8.46 11.027 13.25 26.9 22.372 44.889 25.796 34.947 2.64 61.957-2.828 79.979-39.583z"/></svg>