<svg viewBox="0 0 540 960" width="540" height="960"
    xmlns="http://www.w3.org/2000/svg"
    xmlns:xlink="http://www.w3.org/1999/xlink" version="1.1">
    <rect x="0" y="0" width="540" height="960" fill="#282a36"></rect>
    <path d="M0 612L90 562L180 617L270 610L360 652L450 588L540 624L540 961L450 961L360 961L270 961L180 961L90 961L0 961Z" fill="#bd93f9"></path>
    <path d="M0 685L90 734L180 684L270 664L360 720L450 715L540 682L540 961L450 961L360 961L270 961L180 961L90 961L0 961Z" fill="#7e71b7"></path>
    <path d="M0 764L90 807L180 735L270 761L360 789L450 739L540 738L540 961L450 961L360 961L270 961L180 961L90 961L0 961Z" fill="#4d4d75"></path>
    <path d="M0 893L90 850L180 859L270 853L360 893L450 892L540 840L540 961L450 961L360 961L270 961L180 961L90 961L0 961Z" fill="#282a36"></path>
</svg>