<?xml version="1.0" encoding="UTF-8" standalone="no"?>
<svg
   width="128"
   height="128"
   viewBox="0 0 128 128"
   fill="none"
   version="1.1"
   id="svg68"
   sodipodi:docname="nextntp_logo.svg"
   xmlns:inkscape="http://www.inkscape.org/namespaces/inkscape"
   xmlns:sodipodi="http://sodipodi.sourceforge.net/DTD/sodipodi-0.dtd"
   xmlns="http://www.w3.org/2000/svg"
   xmlns:svg="http://www.w3.org/2000/svg">
  <sodipodi:namedview
     id="namedview70"
     pagecolor="#ffffff"
     bordercolor="#666666"
     borderopacity="1.0"
     inkscape:showpageshadow="2"
     inkscape:pageopacity="0.0"
     inkscape:pagecheckerboard="0"
     inkscape:deskcolor="#d1d1d1"
     showgrid="false" />
  <path
     d="m 234.60925,101.53256 c 0,0.35592 -0.14789,0.69727 -0.41113,0.94895 -0.263,0.25169 -0.61981,0.39307 -0.99194,0.39307 -0.37212,0 -0.72893,-0.14138 -0.99217,-0.39307 -0.263,-0.25168 -0.41089,-0.59303 -0.41089,-0.94895 0,-0.35593 0.14789,-0.69728 0.41089,-0.94896 0.26324,-0.25165 0.62005,-0.39306 0.99217,-0.39306 0.37213,0 0.72894,0.14141 0.99194,0.39306 0.26324,0.25168 0.41113,0.59303 0.41113,0.94896 z m -66.97427,10.72702 h 17.70885 c 4.07362,0.0132 4.19327,7.66841 0,7.65788 h -17.70885 c -3.84478,-0.13305 -3.99465,-7.59351 0,-7.65788 z m 10.52959,-8.85443 c -4.48767,-0.0371 -4.78659,-7.579414 0,-7.657931 h 7.17926 c 4.43234,-0.02888 4.60177,7.657931 0,7.657931 z m 34.53835,20.09668 c -2.82193,-3.70809 -3.38239,-3.58437 -7.73566,-3.58437 h -11.24752 c -4.36954,-0.17613 -4.18049,-7.73613 0,-7.65788 h 6.93996 c 5.12815,0 5.08316,-8.85443 0,-8.85443 h -6.93996 c -3.74471,-0.15816 -3.71096,-7.56807 0,-7.657931 h 14.11922 c 4.85821,-0.104339 4.91278,-8.628425 0,-8.61512 h -27.2813 c -4.25157,-0.0655 -4.26674,-7.870034 0,-7.796842 l 30.12597,0.02501 25.80348,-0.02048 c 19.17965,-0.2282 27.9843,15.459171 28.20782,26.920553 -0.12038,21.34085 -17.91634,29.66114 -28.20782,29.55633 -11.45979,-0.224 -18.61345,-5.5467 -23.78419,-12.31484 z m 39.64845,-7.38028 c -1.69024,-4.92019 -6.34216,-8.86377 -10.16057,-11.05751 -1.21354,-0.68634 -1.38991,-0.97829 -1.01826,-1.68521 1.19606,-2.27466 3.73609,-4.53481 10.96489,-6.90282 3.75595,-1.230358 8.00297,-0.189987 7.75624,-0.436786 -0.35274,-0.352598 -3.65544,-1.779525 -5.67425,-1.786776 -5.73791,-0.425156 -9.90117,2.80592 -14.37361,3.211118 -3.23211,0.02362 -5.35238,-3.026324 -8.84725,-2.682126 -5.72235,0.193673 -10.67748,5.35078 -10.89813,10.20267 0.12923,3.95984 1.05655,5.40168 2.58574,8.79484 -0.38601,1.18697 -0.89406,2.37753 -1.05344,3.61739 -0.10147,0.85697 -0.0684,0.9369 0.83662,2.02456 2.63886,3.17084 6.43741,5.35382 10.74234,6.17321 8.36313,0.63177 14.82686,-0.67677 19.13968,-9.47256 z"
     fill="url(#paint0_linear)"
     id="path59"
     style="fill:url(#paint0_linear);stroke-width:1" />
  <defs
     id="defs66">
    <linearGradient
       id="paint0_linear"
       x1="-19.774599"
       y1="-42.9995"
       x2="404.957"
       y2="196.25999"
       gradientUnits="userSpaceOnUse"
       gradientTransform="matrix(0.23930888,0,0,0.23930888,164.69492,79.334746)">
      <stop
         stop-color="#67C9D7"
         id="stop61" />
      <stop
         offset="1"
         stop-color="#52A7D1"
         id="stop63" />
    </linearGradient>
  </defs>
</svg>
