<svg xmlns="http://www.w3.org/2000/svg" fill="none" viewBox="0 0 128 128"><path fill="#4ca3e2" d="M107.56 29.568c-6.779.104-44.793.122-66.682.105-7.229-.124-7.203 13.1 0 13.21h46.223c8.324-.022 8.232 14.42 0 14.598H63.18c-6.287.152-6.345 12.704 0 12.972h11.758c3.85 0 5.982 3 6.4 6.317.088 4.545-2.599 8.586-6.4 8.687H63.179c-7.083-.133-7.403 12.677 0 12.975h17.76c4.808.034 6.475-2.638 7.362-4.216 8.345-17.716 16.58-36.007 24.461-54.175.503-1.203 1.082-2.072 1.238-3.865 0-3.65-2.883-6.61-6.44-6.608zM36.821 57.48c-8.11.133-7.603 12.909 0 12.972h12.165c7.797 0 7.51-13.021 0-12.972zm-17.84 27.976c-6.768.109-6.514 12.75 0 12.975h30.005c7.105.018 6.902-12.953 0-12.975z"/></svg>