<?xml version="1.0" encoding="UTF-8" standalone="no"?>
<svg
   width="128"
   height="128"
   viewBox="0 0 128 128"
   fill="none"
   version="1.1"
   id="svg68"
   sodipodi:docname="nextntp_logo.svg"
   inkscape:version="1.2.1 (9c6d41e4, 2022-07-14)"
   xmlns:inkscape="http://www.inkscape.org/namespaces/inkscape"
   xmlns:sodipodi="http://sodipodi.sourceforge.net/DTD/sodipodi-0.dtd"
   xmlns="http://www.w3.org/2000/svg"
   xmlns:svg="http://www.w3.org/2000/svg">
  <sodipodi:namedview
     id="namedview70"
     pagecolor="#ffffff"
     bordercolor="#666666"
     borderopacity="1.0"
     inkscape:showpageshadow="2"
     inkscape:pageopacity="0.0"
     inkscape:pagecheckerboard="0"
     inkscape:deskcolor="#d1d1d1"
     showgrid="false"
     inkscape:zoom="4.3627324"
     inkscape:cx="91.571053"
     inkscape:cy="66.586711"
     inkscape:window-width="1792"
     inkscape:window-height="993"
     inkscape:window-x="0"
     inkscape:window-y="25"
     inkscape:window-maximized="1"
     inkscape:current-layer="svg68" />
  <path
     id="path59"
     style="fill:url(#paint0_linear);stroke-width:1"
     d="m 107.56024,29.567575 c -6.77883,0.104404 -44.793687,0.122923 -66.681881,0.105895 -7.229169,-0.124007 -7.203463,13.099363 0,13.21034 h 46.22295 c 8.32377,-0.02255 8.23132,14.420113 0,14.596896 H 63.179083 c -6.287525,0.152251 -6.344696,12.704107 0,12.972078 h 11.7576 c 3.850668,0 5.982596,3.001035 6.399996,6.31727 0.0885,4.544676 -2.598388,8.585655 -6.39999,8.686659 H 63.17909 c -7.083044,-0.13258 -7.40336,12.676961 0,12.975391 h 17.759299 c 4.80886,0.034 6.47601,-2.63798 7.36302,-4.21592 8.34485,-17.715802 16.578691,-36.007591 24.460951,-54.17497 0.5026,-1.202976 1.08161,-2.072461 1.23764,-3.86515 3.6e-4,-3.650186 -2.88312,-6.609229 -6.43971,-6.608479 z M 36.821276,57.480706 c -8.109961,0.133038 -7.603497,12.909236 0,12.972078 h 12.164633 c 7.79682,0 7.509753,-13.021009 0,-12.972078 z M 18.98136,85.456713 c -6.768173,0.109063 -6.514239,12.749951 0,12.975391 h 30.004549 c 7.104693,0.0178 6.901962,-12.953094 0,-12.975391 z"
     sodipodi:nodetypes="cccccccscccccccccccscccccccc" />
  <defs
     id="defs66">
    <linearGradient
       id="paint0_linear"
       x1="107.50707"
       y1="45.519115"
       x2="211.72028"
       y2="142.45456"
       gradientUnits="userSpaceOnUse"
       gradientTransform="matrix(0.40546395,0,0,0.40546395,14.001005,29.671411)">
      <stop
         stop-color="#67C9D7"
         id="stop61" />
      <stop
         offset="1"
         stop-color="#52A7D1"
         id="stop63" />
    </linearGradient>
  </defs>
</svg>
