<svg width="418" height="237" viewBox="0 0 418 237" fill="none" xmlns="http://www.w3.org/2000/svg">
<path d="M292.151 92.758C292.151 94.2453 291.533 95.6717 290.433 96.7234C289.334 97.7751 287.843 98.3659 286.288 98.3659C284.733 98.3659 283.242 97.7751 282.142 96.7234C281.043 95.6717 280.425 94.2453 280.425 92.758C280.425 91.2707 281.043 89.8443 282.142 88.7926C283.242 87.741 284.733 87.1501 286.288 87.1501C287.843 87.1501 289.334 87.741 290.433 88.7926C291.533 89.8443 292.151 91.2707 292.151 92.758ZM12.2856 137.583H86.2856C103.308 137.638 103.808 169.627 86.2856 169.583H12.2856C-3.78055 169.027 -4.40683 137.852 12.2856 137.583ZM56.2856 100.583C37.533 100.428 36.2839 68.9109 56.2856 68.5828H86.2856C104.807 68.4621 105.515 100.583 86.2856 100.583H56.2856ZM200.611 184.561C188.819 169.066 186.477 169.583 168.286 169.583H121.286C103.027 168.847 103.817 137.256 121.286 137.583H150.286C171.715 137.583 171.527 100.583 150.286 100.583H121.286C105.638 99.9221 105.779 68.9583 121.286 68.5828H180.286C200.587 68.1468 200.815 32.5272 180.286 32.5828H66.2856C48.5196 32.3091 48.4562 -0.303712 66.2856 0.00213785L192.173 0.106668L299.998 0.0210664C380.144 -0.932514 416.936 64.6203 417.87 112.514C417.367 201.691 343.003 236.459 299.998 236.021C252.111 235.085 222.218 212.843 200.611 184.561ZM366.29 153.721C359.227 133.161 339.788 116.682 323.832 107.515C318.761 104.647 318.024 103.427 319.577 100.473C324.575 90.9679 335.189 81.5234 365.396 71.6282C381.091 66.4869 398.838 70.8343 397.807 69.803C396.333 68.3296 382.532 62.3669 374.096 62.3366C350.119 60.56 332.722 74.0617 314.033 75.7549C300.527 75.8536 291.667 63.1088 277.063 64.5471C253.151 65.3564 232.445 86.9064 231.523 107.181C232.063 123.728 235.938 129.753 242.328 143.932C240.715 148.892 238.592 153.867 237.926 159.048C237.502 162.629 237.64 162.963 241.422 167.508C252.449 180.758 268.322 189.88 286.311 193.304C321.258 195.944 348.268 190.476 366.29 153.721Z" fill="url(#paint0_linear)"/>
<defs>
<linearGradient id="paint0_linear" x1="-19.7746" y1="-42.9995" x2="404.957" y2="196.26" gradientUnits="userSpaceOnUse">
<stop stop-color="#67C9D7"/>
<stop offset="1" stop-color="#52A7D1"/>
</linearGradient>
</defs>
</svg>
